<?xml version="1.0" standalone="no"?>
<!DOCTYPE svg PUBLIC "-//W3C//DTD SVG 20010904//EN"
 "http://www.w3.org/TR/2001/REC-SVG-20010904/DTD/svg10.dtd">
<svg version="1.0" xmlns="http://www.w3.org/2000/svg"
 width="391.000000pt" height="500.000000pt" viewBox="0 0 391.000000 500.000000"
 preserveAspectRatio="xMidYMid meet">

<g transform="translate(0.000000,500.000000) scale(0.100000,-0.100000)"
fill="#000000" stroke="none">
<path d="M50 3180 l0 -1769 43 15 c89 32 352 113 355 109 3 -2 -25 -48 -60
-102 -35 -54 -82 -129 -103 -168 -72 -131 -123 -194 -198 -245 l-37 -25 2
-470 3 -470 278 -3 c152 -1 277 1 277 5 0 16 -94 213 -102 213 -4 0 -5 -7 -2
-15 11 -27 -43 -37 -166 -32 -63 3 -106 3 -95 0 11 -3 23 -11 27 -18 5 -8 28
-13 55 -14 90 -1 158 -10 190 -23 28 -12 30 -15 17 -32 -7 -10 -11 -23 -8 -27
10 -16 -37 -29 -122 -32 -116 -4 -154 6 -213 59 -27 24 -55 44 -62 44 -8 1
-26 17 -42 37 -34 45 -36 106 -7 212 17 60 19 80 9 108 -14 42 -2 78 44 136
19 23 40 59 48 80 30 85 112 118 176 71 16 -12 40 -25 53 -29 47 -14 79 -45
90 -85 12 -46 -3 -90 -32 -90 -10 0 -18 -5 -18 -10 0 -6 15 -8 39 -4 38 6 39
5 46 -27 5 -19 10 -28 12 -21 3 6 9 10 14 6 14 -8 10 9 -6 30 -14 18 -12 22
20 49 43 35 44 47 6 47 -42 0 -47 17 -9 25 18 4 59 18 91 32 47 19 72 23 129
21 l72 -3 20 -50 c24 -61 24 -61 36 -49 6 6 26 8 46 6 26 -3 38 -11 44 -28 13
-34 -6 -83 -36 -90 -28 -7 -27 -3 -10 -45 7 -19 16 -42 19 -51 6 -16 13 -15
89 12 209 77 193 75 441 61 122 -6 287 -17 367 -23 80 -7 160 -11 178 -10 23
1 32 -2 32 -13 0 -12 14 -15 65 -15 37 0 65 4 65 10 0 6 -25 10 -55 10 -52 0
-55 1 -45 19 7 14 6 21 -3 24 -6 3 -2 4 11 4 12 -1 22 -5 22 -9 0 -5 9 -4 19
2 35 18 48 11 59 -30 7 -29 7 -40 -2 -41 -120 -9 -130 -9 -146 6 -17 15 -19
14 -30 -22 -7 -21 -19 -47 -26 -58 -8 -11 -14 -26 -14 -35 1 -8 7 -3 16 13 21
38 26 34 8 -8 -17 -40 -18 -55 -4 -55 6 0 10 8 10 19 0 22 34 67 61 81 15 9
19 7 19 -5 0 -9 -4 -14 -9 -11 -5 3 -20 -12 -35 -34 -15 -22 -22 -42 -16 -45
6 -3 10 1 10 9 0 8 10 24 22 35 l21 21 26 -38 c14 -20 26 -50 27 -65 2 -16 8
-34 14 -42 29 -35 -20 -75 -75 -61 -22 6 -25 3 -25 -21 1 -26 2 -27 14 -10 10
12 21 16 38 12 13 -3 43 -2 66 3 34 8 42 7 42 -5 0 -8 -8 -13 -17 -12 -10 1
-29 0 -43 -1 -23 -1 -23 -2 -5 -10 15 -6 5 -9 -35 -9 -56 -1 -91 -14 -77 -28
4 -4 17 -2 27 5 24 14 120 16 120 2 0 -6 -27 -10 -61 -10 -43 0 -58 -3 -53
-12 4 -6 3 -8 -4 -4 -6 3 -13 2 -17 -4 -4 -7 74 -10 235 -10 133 0 239 4 236
8 -3 5 -37 7 -76 5 -66 -2 -71 -1 -65 16 5 15 1 19 -20 17 -14 0 -25 -5 -25
-9 0 -5 -4 -5 -10 -2 -6 3 -10 1 -10 -4 0 -22 -20 -10 -21 12 -1 20 -2 19 -11
-5 -7 -20 -17 -28 -34 -28 -29 0 -31 14 -6 32 10 7 22 28 25 46 4 19 18 57 33
85 30 61 27 88 -17 184 -33 69 -44 80 -34 33 5 -23 3 -30 -8 -30 -21 0 -25 18
-18 70 l6 45 48 3 c26 2 47 -1 47 -6 0 -5 13 -9 30 -8 34 1 38 10 13 25 -14 7
-15 13 -7 21 9 9 19 2 40 -27 51 -67 117 -127 175 -157 93 -49 117 -118 95
-274 l-8 -53 563 2 c407 1 566 5 572 13 6 8 10 8 14 -1 2 -7 9 -13 14 -13 5 0
9 1003 9 2450 l0 2450 -1905 0 -1905 0 0 -1770z m2005 1320 c-3 -5 -2 -10 4
-10 5 0 13 5 16 10 3 6 14 9 23 9 16 -1 16 -2 0 -6 -9 -2 -19 -11 -22 -20 -5
-12 -3 -13 6 -6 7 6 40 13 73 17 32 4 70 9 84 13 17 4 22 3 16 -6 -4 -8 -2
-11 6 -10 43 8 182 -28 239 -62 8 -5 32 -16 52 -25 20 -8 39 -22 42 -30 3 -8
11 -14 18 -14 15 -1 68 -45 68 -57 0 -4 16 -28 35 -52 20 -25 34 -50 31 -57
-3 -7 2 -15 10 -18 10 -4 12 -2 8 6 -4 6 -3 8 4 4 6 -3 9 -15 7 -26 -2 -10 3
-24 11 -31 21 -17 17 -29 -8 -29 -19 0 -20 -2 -8 -10 8 -5 27 -10 42 -10 15 0
30 -4 33 -10 10 -16 -30 -11 -76 10 -24 11 -53 20 -65 20 -16 0 -44 34 -44 53
0 2 16 1 36 -1 23 -3 34 -1 31 5 -4 6 -29 13 -56 17 -56 7 -78 25 -34 27 22 1
16 5 -24 17 -29 8 -53 19 -53 24 0 5 10 7 23 3 21 -6 21 -5 4 9 -10 8 -31 13
-47 11 -22 -3 -28 0 -23 11 3 7 16 14 29 14 24 0 35 16 12 17 -7 0 -28 4 -45
7 -26 5 -33 3 -33 -10 0 -10 5 -14 15 -10 8 3 15 2 15 -3 0 -5 -7 -14 -15 -21
-9 -7 -15 -8 -15 -2 0 5 -9 8 -20 5 -12 -3 -20 0 -20 7 0 7 7 10 15 6 9 -3 15
0 15 9 0 17 -30 9 -46 -14 -10 -13 -16 -14 -37 -2 -14 7 -31 10 -39 6 -9 -6
-10 -5 -3 3 6 6 26 13 45 15 43 6 70 16 70 28 0 5 5 9 11 9 6 0 17 7 25 15 13
12 13 15 1 15 -7 0 -24 -11 -37 -25 -22 -24 -50 -34 -50 -17 0 4 9 22 20 40
24 39 17 61 -11 36 -18 -16 -19 -16 -20 7 -1 13 -1 30 0 37 1 6 -5 12 -14 12
-8 0 -15 -4 -15 -8 0 -5 -9 -19 -20 -32 -18 -21 -25 -41 -21 -64 1 -5 -5 -6
-14 -2 -9 3 -13 2 -10 -4 3 -6 3 -15 -1 -21 -4 -8 -9 -7 -15 2 -5 8 -3 20 5
29 17 20 29 53 16 45 -6 -3 -10 -1 -10 6 0 8 -9 4 -22 -8 -13 -11 -30 -23 -38
-27 -8 -4 -4 2 10 13 21 18 23 22 10 31 -19 12 -35 8 -35 -11 0 -21 -24 -59
-38 -59 -31 1 -36 15 -23 55 8 22 19 41 25 43 15 5 13 -18 -4 -48 -8 -14 -14
-29 -15 -33 0 -15 37 28 44 49 3 12 18 26 32 32 31 15 37 15 28 0 -5 -7 -3 -8
5 -3 22 13 -4 28 -28 16 -17 -10 -24 -8 -37 8 -15 17 -18 17 -35 3 -11 -9 -19
-26 -19 -38 0 -11 -10 -29 -22 -40 -12 -10 -18 -13 -14 -6 4 6 3 12 -3 12 -7
0 -7 8 -1 25 6 16 6 25 0 25 -6 0 -10 -6 -10 -12 -1 -19 -38 -64 -46 -56 -4 4
-1 16 7 25 11 14 8 14 -10 -2 l-24 -20 12 23 c7 13 10 26 7 30 -3 3 -6 1 -6
-4 0 -5 -10 -20 -21 -34 -16 -19 -19 -20 -15 -6 6 18 5 18 -20 1 l-26 -17 26
45 c27 45 34 73 16 62 -5 -3 -10 -14 -10 -23 -1 -9 -12 -30 -25 -47 -23 -28
-25 -28 -25 -8 0 12 5 25 10 28 6 3 10 11 10 16 0 6 -6 7 -12 2 -7 -4 -17 -8
-23 -8 -5 -1 -9 -6 -8 -12 1 -6 -6 -9 -16 -6 -12 3 -25 -7 -42 -31 -13 -20
-29 -36 -35 -36 -6 0 -19 -10 -28 -22 -15 -23 -16 -23 -6 6 6 16 8 31 6 33 -9
9 -26 -8 -26 -26 0 -23 -9 -31 -25 -24 -9 3 -12 16 -10 34 5 37 -11 29 -20
-11 -4 -19 -17 -34 -36 -44 -32 -16 -40 -2 -11 21 9 7 13 13 7 12 -33 -4 -32
5 5 36 23 19 51 35 61 35 11 0 27 4 37 10 9 5 60 24 112 41 52 17 102 35 110
40 21 12 53 11 45 -1z m-134 -113 c-10 -9 -11 -8 -5 6 3 10 9 15 12 12 3 -3 0
-11 -7 -18z m394 -87 c3 -5 1 -10 -4 -10 -6 0 -11 5 -11 10 0 6 2 10 4 10 3 0
8 -4 11 -10z m-530 -41 c-19 -53 -19 -59 1 -31 18 26 47 30 37 5 -5 -12 -3
-14 7 -8 10 6 12 4 7 -8 -10 -28 24 -8 71 41 49 50 63 51 33 1 -23 -37 -27
-59 -11 -59 6 0 10 6 10 14 0 7 8 20 17 27 15 12 16 12 8 -6 -4 -11 -8 -28 -9
-37 0 -10 -6 -18 -13 -18 -7 0 -17 -9 -23 -19 -14 -26 -13 -51 1 -27 9 15 13
16 21 5 6 -10 7 -6 2 11 -6 22 -5 23 10 11 9 -7 16 -22 16 -33 0 -10 5 -16 10
-13 6 3 10 15 10 26 0 10 5 19 10 19 13 0 13 -77 0 -85 -5 -3 -8 -11 -6 -18 1
-7 1 -9 -1 -4 -3 4 -11 7 -18 7 -7 0 -13 6 -12 13 1 30 -4 47 -14 47 -5 0 -7
-5 -4 -10 4 -6 8 -40 9 -76 2 -35 8 -70 14 -76 9 -9 12 -9 12 -1 0 6 -4 13 -9
15 -5 2 -3 9 5 16 12 10 14 10 14 -2 0 -10 6 -13 17 -9 10 4 14 2 10 -4 -4 -6
-1 -11 6 -10 49 1 58 -3 52 -25 -6 -22 -5 -22 7 -3 7 11 21 21 30 23 13 2 17
-5 16 -38 0 -27 -5 -40 -14 -40 -8 0 -14 5 -14 12 0 8 -3 9 -10 2 -5 -5 -7
-20 -3 -32 4 -16 11 -21 23 -17 10 3 21 1 25 -5 5 -8 -2 -11 -21 -9 -16 1 -36
-1 -44 -4 -8 -3 -24 -8 -35 -10 -11 -3 -2 -6 20 -7 37 -1 93 -17 70 -19 -5 -1
-3 -6 5 -12 12 -8 10 -10 -10 -8 -14 1 -34 1 -45 0 -17 -1 -18 -3 -5 -11 12
-8 10 -10 -10 -11 -17 -1 -19 -3 -7 -6 15 -4 21 -15 18 -36 0 -4 5 -6 11 -5 7
2 13 -6 13 -17 0 -22 45 -42 55 -24 4 6 11 5 19 -4 9 -12 7 -16 -11 -20 -13
-4 -27 -2 -32 3 -6 6 -17 10 -25 10 -8 0 -11 -3 -8 -6 3 -4 2 -15 -4 -26 -9
-17 -8 -18 10 -9 11 6 37 11 58 11 31 0 46 -7 73 -35 26 -27 30 -35 16 -35
-10 0 -14 -4 -10 -12 4 -7 3 -8 -4 -4 -7 4 -12 14 -12 22 0 13 -4 13 -30 -1
-16 -8 -43 -15 -59 -15 -35 0 -123 -22 -163 -40 -15 -7 -30 -21 -33 -32 -4
-10 -11 -18 -16 -18 -6 0 -7 -5 -4 -11 4 -6 0 -16 -8 -22 -10 -8 -17 -38 -21
-92 -9 -128 -11 -149 -20 -163 -5 -8 -4 -18 3 -25 6 -6 11 -38 11 -72 0 -76
-19 -109 -61 -103 -24 4 -27 2 -18 -14 5 -10 14 -18 18 -18 10 0 9 -56 -2 -66
-4 -4 -7 -1 -7 7 0 12 -2 12 -9 0 -5 -8 -7 -21 -4 -30 3 -9 -2 -6 -12 7 -14
19 -19 21 -33 10 -13 -11 -15 -10 -9 5 9 24 -2 21 -37 -10 l-30 -28 18 28 c10
16 15 32 11 35 -3 4 -10 0 -15 -8 -6 -8 -10 -11 -10 -6 0 5 -7 3 -15 -4 -20
-17 -19 -11 10 46 14 27 25 55 25 62 0 7 7 24 16 38 13 20 14 28 5 37 -10 9
-14 8 -22 -5 -6 -10 -15 -18 -20 -18 -15 0 -35 -23 -44 -49 -5 -16 -13 -21
-25 -18 -11 3 -21 0 -22 -5 -5 -15 -62 16 -81 45 -11 17 -14 42 -12 88 2 35 2
54 -1 42 -11 -48 -22 -19 -22 59 0 53 4 86 11 90 9 6 9 10 -1 16 -9 7 -10 15
-3 35 7 17 7 27 1 27 -6 0 -10 10 -9 23 0 21 1 21 9 2 7 -19 8 -19 15 -2 6 14
10 15 21 6 11 -9 14 -9 11 2 -2 8 -2 11 0 6 3 -4 9 -5 14 -1 9 5 -10 -46 -21
-56 -3 -3 -6 -11 -7 -17 -5 -23 24 -13 35 12 6 14 18 25 26 25 9 0 13 6 10 14
-3 8 3 19 15 26 19 9 21 8 21 -15 0 -23 3 -25 48 -25 26 0 42 -4 36 -8 -7 -4
-12 -19 -12 -34 0 -26 3 -27 31 -22 40 7 53 26 26 36 -19 7 -19 9 -5 24 9 8
16 20 16 26 0 5 7 8 15 4 46 -17 -27 86 -80 113 -24 12 -65 21 -104 23 l-64 3
-23 -40 c-13 -22 -23 -48 -24 -57 0 -10 -4 -18 -8 -18 -12 0 -4 90 13 141 8
25 14 61 13 80 0 19 3 45 7 59 5 14 8 34 7 45 -2 11 9 33 24 48 27 29 49 87
33 87 -5 0 -9 -9 -9 -20 0 -11 -4 -20 -9 -20 -5 0 -8 12 -7 28 3 20 8 26 23
24 13 -2 23 6 31 23 14 31 16 65 3 65 -5 0 -7 9 -4 20 3 11 9 17 14 14 5 -3 7
-10 4 -15 -4 -5 1 -9 10 -9 9 0 13 5 10 10 -3 6 1 10 10 10 9 0 27 11 41 25
14 14 29 25 34 25 6 0 10 8 10 18 0 14 -2 15 -9 3 -8 -12 -11 -8 -17 15 -4 16
-11 32 -17 35 -6 4 -4 15 6 29 l15 22 5 -23 c3 -18 5 -16 6 9 1 38 17 71 40
89 9 6 17 16 17 22 1 6 2 16 3 21 0 6 5 10 11 10 5 0 3 -19 -5 -41z m655 2 c0
-5 -7 -12 -16 -15 -8 -3 -13 -10 -10 -15 4 -5 -2 -8 -11 -7 -25 4 -28 26 -4
26 12 0 21 5 21 10 0 6 5 10 10 10 6 0 10 -4 10 -9z m-789 -56 c-5 -17 -10
-22 -10 -12 -1 9 -7 17 -13 18 -10 0 -10 2 0 6 6 2 12 12 12 21 0 10 3 13 10
6 6 -6 6 -21 1 -39z m899 35 c0 -5 -7 -10 -16 -10 -8 0 -12 5 -9 10 3 6 10 10
16 10 5 0 9 -4 9 -10z m-539 -33 c-10 -9 -11 -8 -5 6 3 10 9 15 12 12 3 -3 0
-11 -7 -18z m484 13 c-3 -5 -10 -10 -16 -10 -5 0 -9 5 -9 10 0 6 7 10 16 10 8
0 12 -4 9 -10z m-35 -14 c0 -3 -4 -8 -10 -11 -5 -3 -10 -1 -10 4 0 6 5 11 10
11 6 0 10 -2 10 -4z m-850 -46 c0 -11 -2 -20 -4 -20 -2 0 -6 9 -9 20 -3 11 -1
20 4 20 5 0 9 -9 9 -20z m65 10 c3 -5 1 -10 -4 -10 -6 0 -11 5 -11 10 0 6 2
10 4 10 3 0 8 -4 11 -10z m370 1 c3 -5 1 -12 -5 -16 -5 -3 -10 1 -10 9 0 18 6
21 15 7z m-461 -16 c3 -8 1 -15 -3 -15 -5 0 -11 7 -15 15 -3 8 -1 15 3 15 5 0
11 -7 15 -15z m1049 -10 c-3 -9 -8 -14 -10 -11 -3 3 -2 9 2 15 9 16 15 13 8
-4z m-520 -18 c3 -8 2 -20 -3 -26 -5 -9 -7 -4 -7 13 0 29 2 32 10 13z m-562
-24 c5 -13 2 -23 -11 -31 -14 -9 -21 -7 -36 10 -16 18 -16 20 -3 15 13 -4 16
-1 12 13 -7 26 28 20 38 -7z m24 17 c3 -5 1 -10 -4 -10 -6 0 -11 5 -11 10 0 6
2 10 4 10 3 0 8 -4 11 -10z m1085 0 c0 -5 -4 -10 -10 -10 -5 0 -10 5 -10 10 0
6 5 10 10 10 6 0 10 -4 10 -10z m-589 -33 c-8 -8 -11 -7 -11 4 0 20 13 34 18
19 3 -7 -1 -17 -7 -23z m52 -12 c-9 -19 -18 -33 -21 -31 -4 5 26 66 33 66 3 0
-3 -16 -12 -35z m-623 -15 c31 -27 21 -34 -21 -16 -24 11 -28 15 -14 16 17 0
17 2 5 10 -8 5 -10 10 -4 10 6 0 21 -9 34 -20z m130 8 c0 -4 -6 -8 -14 -8 -8
0 -17 4 -20 8 -2 4 4 8 15 8 10 0 19 -4 19 -8z m-152 -41 c28 7 31 -23 5 -44
-17 -13 -16 -14 5 -8 21 6 23 5 13 -13 -6 -11 -16 -23 -23 -25 -7 -3 -4 -6 7
-6 16 -1 17 -3 6 -10 -8 -5 -16 -15 -17 -23 -17 -110 -24 -171 -24 -208 0 -25
-1 -53 -1 -63 0 -9 -4 -15 -10 -12 -5 4 -9 -2 -9 -12 0 -11 -6 -28 -14 -38
-13 -18 -13 -15 -5 25 5 25 11 59 13 75 1 17 7 39 11 50 8 19 8 19 -12 2 -27
-23 -38 -1 -14 27 9 11 11 17 5 13 -7 -4 -11 9 -12 38 0 39 4 48 31 70 l32 25
-32 -6 c-22 -4 -33 -3 -33 5 0 6 5 11 10 11 6 0 10 8 10 19 0 10 7 24 15 31
15 13 11 35 -6 25 -5 -3 -6 1 -3 10 4 11 13 14 28 9 20 -6 20 -5 -4 22 -14 16
-18 23 -9 17 8 -7 25 -10 37 -6z m1057 -27 c-3 -5 -14 -10 -23 -10 -15 0 -15
2 -2 10 20 13 33 13 25 0z m-445 -25 c5 3 11 1 14 -4 4 -5 -2 -8 -11 -6 -10 2
-22 4 -26 4 -5 1 -5 6 -1 13 6 9 9 9 12 0 2 -7 8 -10 12 -7z m-510 -15 c0 -5
-2 -10 -4 -10 -3 0 -8 5 -11 10 -3 6 -1 10 4 10 6 0 11 -4 11 -10z m940 -9 c0
-5 -10 -11 -22 -14 -22 -6 -22 -6 -4 8 23 17 26 18 26 6z m235 -10 c3 -6 -6
-8 -22 -5 -37 7 -42 14 -10 14 14 0 28 -4 32 -9z m-239 -38 c-10 -10 -19 5
-10 18 6 11 8 11 12 0 2 -7 1 -15 -2 -18z m324 -5 c0 -6 -6 -5 -15 2 -8 7 -15
14 -15 16 0 2 7 1 15 -2 8 -4 15 -11 15 -16z m-284 -7 c-7 -11 -56 -21 -56
-10 0 9 19 17 43 18 10 1 16 -3 13 -8z m254 -51 c-6 -11 -15 -20 -21 -20 -6 0
-7 5 -4 10 3 6 -5 10 -19 10 -14 0 -28 -4 -31 -10 -3 -5 -14 -10 -23 -10 -15
0 -15 2 -2 10 13 9 13 10 0 11 -8 1 10 5 40 9 30 4 59 7 63 8 4 1 3 -7 -3 -18z
m-19 -110 c10 -6 19 -16 19 -23 0 -9 -2 -9 -8 0 -4 7 -19 16 -32 22 -14 5 -19
10 -12 10 7 1 22 -4 33 -9z m-1297 -34 c-6 -16 -24 -23 -24 -8 0 10 22 33 27
28 2 -2 1 -11 -3 -20z m1241 -36 c19 -8 19 -9 -2 -9 -12 -1 -25 4 -28 9 -7 12
2 12 30 0z m80 -10 c8 -13 -5 -13 -25 0 -13 8 -13 10 2 10 9 0 20 -4 23 -10z
m-565 -20 c0 -5 -2 -10 -4 -10 -3 0 -8 5 -11 10 -3 6 -1 10 4 10 6 0 11 -4 11
-10z m-76 -156 c25 -10 19 -22 -9 -16 -14 2 -25 8 -25 13 0 10 12 11 34 3z
m41 -24 c3 -5 1 -10 -4 -10 -6 0 -11 5 -11 10 0 6 2 10 4 10 3 0 8 -4 11 -10z
m-101 -64 c6 -23 10 -24 59 -20 l52 4 -35 -16 c-35 -17 -35 -17 -10 -24 21 -7
22 -8 5 -10 -11 -1 -15 -4 -8 -6 7 -3 9 -12 6 -20 -3 -8 0 -14 7 -14 6 0 9 4
5 9 -3 5 -1 12 5 16 5 3 10 2 10 -3 0 -18 50 -10 61 9 5 11 14 19 20 19 6 0 7
-4 4 -10 -10 -16 11 -12 25 5 16 19 31 20 24 1 -3 -8 -16 -17 -29 -20 -19 -5
-23 -11 -19 -31 3 -18 1 -23 -10 -19 -13 5 -14 0 -6 -26 11 -37 -3 -75 -23
-63 -7 4 -5 -4 4 -17 45 -69 44 -65 20 -99 -12 -17 -27 -31 -32 -31 -5 0 -9
-9 -9 -20 0 -21 -15 -27 -25 -10 -3 6 -14 10 -23 10 -9 0 -30 14 -46 30 -30
31 -46 38 -46 20 0 -5 4 -10 9 -10 18 0 63 -49 56 -60 -9 -14 -75 53 -75 75 0
8 -4 15 -8 15 -17 0 -33 47 -37 105 -3 68 -6 81 -23 112 -12 22 -11 22 20 17
31 -5 32 -5 14 10 -11 9 -26 16 -33 16 -25 0 -13 18 17 24 17 3 30 11 30 19 0
14 19 37 31 37 4 0 10 -11 13 -24z m150 -2 c3 -8 2 -12 -4 -9 -6 3 -10 10 -10
16 0 14 7 11 14 -7z m-277 -136 c-3 -7 -5 -2 -5 12 0 14 2 19 5 13 2 -7 2 -19
0 -25z m813 2 c0 -5 -5 -10 -11 -10 -5 0 -7 5 -4 10 3 6 8 10 11 10 2 0 4 -4
4 -10z m-476 -96 c3 -7 -2 -10 -15 -7 -22 6 -26 20 -4 20 8 0 16 -6 19 -13z
m-129 -184 c3 -5 1 -10 -4 -10 -6 0 -11 5 -11 10 0 6 2 10 4 10 3 0 8 -4 11
-10z m-330 -60 c-3 -5 -10 -10 -16 -10 -5 0 -9 5 -9 10 0 6 7 10 16 10 8 0 12
-4 9 -10z m436 -23 c0 -9 2 -9 6 1 2 6 9 12 15 12 6 0 7 -7 4 -15 -3 -9 1 -18
9 -21 9 -4 15 -19 15 -37 0 -29 0 -30 -20 -12 -18 16 -20 16 -20 2 0 -10 5
-17 12 -17 9 0 9 -3 1 -11 -6 -6 -9 -18 -6 -25 3 -9 -2 -14 -13 -15 -15 0 -15
-2 -4 -6 20 -8 29 -23 23 -39 -3 -8 -15 -1 -34 20 -27 32 -29 38 -28 114 2 76
3 80 21 71 10 -5 18 -15 19 -22z m-681 -28 c0 -5 5 -7 12 -3 8 5 9 2 5 -10 -6
-14 -3 -17 8 -12 9 3 13 2 10 -4 -3 -6 5 -10 19 -10 14 0 28 -4 31 -10 3 -5
15 -10 26 -10 12 0 17 -4 13 -11 -4 -7 0 -9 13 -5 25 8 62 -17 43 -29 -8 -5
-11 -4 -7 2 4 6 0 13 -8 17 -8 3 -15 1 -15 -5 0 -6 -4 -7 -10 -4 -5 3 -10 2
-10 -4 0 -5 5 -13 10 -16 6 -3 10 -14 10 -23 0 -23 60 -91 66 -75 4 8 14 8 40
-3 19 -8 34 -10 34 -5 0 5 9 7 20 4 33 -9 120 17 120 35 0 31 -16 45 -36 34
-26 -14 -162 -24 -143 -10 10 7 5 8 -18 4 -25 -4 -31 -2 -26 9 3 10 -1 15 -13
15 -18 1 -18 1 -1 14 19 15 57 10 57 -6 0 -5 5 -6 12 -2 15 10 127 11 121 2
-2 -5 3 -8 11 -8 12 0 16 10 16 40 0 35 3 40 24 40 29 0 41 -14 55 -65 9 -33
8 -42 -4 -51 -8 -6 -12 -14 -8 -18 4 -4 0 -4 -9 -1 -9 4 -19 2 -23 -4 -3 -6
-1 -11 6 -11 7 0 9 -3 6 -7 -9 -9 12 -33 29 -33 8 0 19 11 26 25 l11 24 19
-24 c11 -14 17 -29 13 -35 -3 -6 0 -7 9 -4 10 4 16 1 16 -9 0 -9 3 -24 6 -34
6 -15 4 -16 -7 -5 -19 18 -31 15 -24 -7 3 -11 -3 -34 -16 -55 -24 -42 -29 -44
-23 -13 3 13 -1 9 -10 -10 -8 -18 -21 -33 -29 -33 -8 0 -20 -7 -27 -15 -7 -9
-15 -13 -18 -10 -3 3 2 11 11 18 9 7 17 29 19 51 1 21 8 40 15 43 7 3 13 12
13 21 0 25 -35 -18 -37 -45 -2 -31 -25 -76 -42 -81 -10 -3 -12 0 -7 14 6 17 6
17 -11 2 -10 -9 -35 -19 -55 -23 -31 -6 -38 -4 -38 9 0 9 -5 16 -10 16 -6 0
-9 -5 -8 -11 2 -6 -7 -12 -19 -14 -13 -1 -23 2 -23 7 0 4 -5 8 -11 8 -5 0 -7
-5 -4 -11 12 -18 -38 15 -58 39 -10 12 -25 22 -33 22 -8 0 -14 6 -14 14 0 8
-4 16 -10 18 -5 2 -12 19 -15 38 -2 19 -10 55 -15 80 -6 25 -11 52 -11 62 0 9
-9 18 -20 21 -10 3 -19 11 -19 17 0 7 7 10 16 6 25 -10 37 4 17 20 -22 17 -37
18 -27 2 5 -7 3 -8 -5 -3 -8 4 -10 17 -7 31 4 14 2 24 -4 24 -6 0 -8 -4 -5
-10 3 -5 -1 -10 -10 -10 -11 0 -15 5 -12 14 4 9 -5 19 -24 26 -39 16 -38 40 1
40 17 0 30 -5 30 -11z m330 -39 c0 -5 -7 -10 -16 -10 -8 0 -12 5 -9 10 3 6 10
10 16 10 5 0 9 -4 9 -10z m395 -60 c3 -5 1 -10 -4 -10 -6 0 -11 5 -11 10 0 6
2 10 4 10 3 0 8 -4 11 -10z m331 -132 c-4 -22 -11 -48 -17 -57 -7 -12 -8 -5
-4 24 8 51 15 75 22 75 3 0 3 -19 -1 -42z m-86 -114 c0 -3 -25 -32 -56 -64
-30 -32 -48 -57 -40 -56 9 1 23 11 31 22 8 10 15 14 15 7 0 -6 -5 -15 -10 -18
-6 -4 -8 -10 -6 -14 3 -4 -10 -23 -29 -41 -19 -19 -35 -40 -35 -48 0 -7 -5
-10 -10 -7 -7 4 -9 -9 -7 -37 3 -24 0 -51 -5 -61 -9 -18 -10 -18 -23 0 -7 10
-11 22 -8 27 4 5 1 6 -5 2 -6 -3 -9 -15 -7 -26 4 -23 -13 -38 -42 -35 -13 1
-21 -1 -18 -3 3 -3 1 -10 -5 -16 -6 -8 -3 -12 10 -12 10 0 16 4 14 8 -8 12 11
9 23 -3 8 -8 8 -20 3 -35 -12 -32 3 -38 26 -11 19 21 19 21 0 7 -18 -14 -18
-14 -6 5 16 27 50 30 50 5 0 -10 -4 -21 -9 -25 -11 -6 4 23 -208 -400 -93
-187 -189 -384 -213 -437 -24 -53 -45 -96 -46 -95 -1 1 9 49 22 107 13 58 24
117 24 132 0 16 9 54 20 85 20 60 29 111 32 185 0 24 5 53 9 65 5 13 4 25 -1
28 -6 4 -10 20 -10 36 0 16 -6 45 -14 64 l-14 34 52 48 c29 26 72 62 95 78
l43 30 -64 60 c-52 49 -75 63 -128 79 -75 22 -139 17 -199 -13 -45 -24 -62
-48 -67 -100 -2 -20 -1 -30 2 -23 3 6 11 9 16 6 7 -5 8 -2 3 5 -4 8 4 24 23
42 l30 30 13 -38 c7 -21 13 -67 13 -103 l0 -65 -56 -57 c-67 -69 -115 -163
-159 -313 -35 -118 -36 -121 -44 -113 -3 3 1 24 9 46 8 23 31 115 50 204 20
90 44 191 55 226 10 34 17 62 14 62 -2 0 3 7 11 16 9 8 16 20 16 27 0 6 -7 2
-15 -9 -14 -19 -14 -19 -15 2 0 12 7 41 15 64 10 28 15 81 15 154 0 61 3 127
6 147 l6 37 39 -22 c21 -12 49 -36 61 -53 92 -127 119 -147 198 -147 34 0 60
9 108 37 34 20 62 33 62 30 0 -4 11 4 24 16 15 14 30 20 37 16 7 -5 10 -4 6 2
-4 6 4 15 16 20 26 12 215 162 236 186 14 18 21 21 21 11z m-585 -283 c-3 -3
-18 8 -33 23 l-27 29 32 -23 c18 -13 30 -26 28 -29z m1639 40 c3 -5 -5 -8 -18
-7 -13 0 -22 4 -19 9 6 10 31 9 37 -2z m-1148 -48 c-10 -11 -19 -7 -22 10 -2
15 0 16 12 6 8 -6 12 -14 10 -16z m-696 -419 c0 -8 -5 -12 -10 -9 -6 4 -8 11
-5 16 9 14 15 11 15 -7z m-48 -662 c-7 -2 -9 -9 -6 -14 4 -7 2 -8 -4 -4 -6 4
-9 13 -6 21 4 8 11 12 17 8 8 -5 7 -8 -1 -11z m-57 -31 c3 -5 2 -12 -3 -15 -5
-3 -9 1 -9 9 0 17 3 19 12 6z m185 -16 c0 -8 -2 -15 -4 -15 -2 0 -6 7 -10 15
-3 8 -1 15 4 15 6 0 10 -7 10 -15z m890 -126 c-15 -36 -4 -52 16 -24 10 12 13
31 10 49 -6 28 -5 28 17 14 33 -22 67 -77 67 -109 0 -16 -4 -29 -10 -29 -5 0
-7 6 -4 14 3 9 -4 16 -21 20 -38 10 -46 -1 -27 -36 14 -24 29 -34 72 -45 63
-16 80 -28 80 -56 0 -24 -37 -67 -57 -67 -20 0 -16 10 12 32 21 16 23 23 14
40 -6 11 -13 17 -17 14 -3 -4 -1 -11 6 -18 8 -8 0 -18 -34 -40 -24 -15 -47
-28 -50 -28 -3 0 -18 -10 -34 -21 -33 -25 -139 -36 -152 -16 -4 8 -10 3 -17
-13 -5 -14 -10 -22 -10 -18 -1 4 -12 3 -27 -2 -14 -6 -38 -12 -54 -15 -27 -5
-29 -4 -21 17 5 13 14 77 21 143 16 166 23 191 62 204 40 14 44 14 62 -5 10
-9 16 -33 16 -60 0 -24 4 -44 9 -44 9 0 70 128 72 151 1 8 3 6 6 -4 3 -10 -1
-32 -7 -48z m-1158 -61 c-7 -7 -12 -8 -12 -2 0 14 12 26 19 19 2 -3 -1 -11 -7
-17z m198 8 c0 -3 -4 -8 -10 -11 -5 -3 -10 -1 -10 4 0 6 5 11 10 11 6 0 10 -2
10 -4z m-1175 -148 c4 4 6 0 3 -7 -4 -15 -52 -33 -62 -24 -2 3 3 13 12 23 11
13 20 16 27 10 7 -6 15 -6 20 -2z m1598 -345 c35 -20 76 -143 47 -143 -5 0
-10 15 -10 34 0 35 -32 86 -55 86 -7 0 -1 -13 15 -30 24 -25 28 -38 24 -67 -2
-19 -9 -42 -14 -52 -9 -14 -10 -13 -8 4 2 14 -2 19 -14 17 -20 -3 -49 35 -41
54 4 10 0 12 -11 8 -12 -5 -16 0 -16 23 0 16 -5 34 -12 41 -9 9 -9 12 0 12 7
0 12 -4 12 -9 0 -5 10 -7 21 -4 20 6 20 7 6 18 -9 7 -14 15 -10 18 6 6 49 -1
66 -10z m-13 -197 c0 -3 -4 -8 -10 -11 -5 -3 -10 -1 -10 4 0 6 5 11 10 11 6 0
10 -2 10 -4z m17 -112 c-3 -3 -12 -4 -19 -1 -8 3 -5 6 6 6 11 1 17 -2 13 -5z
m-54 -51 c-13 -2 -35 -2 -50 0 -16 2 -5 4 22 4 28 0 40 -2 28 -4z"/>
<path d="M1825 4390 c-3 -5 -1 -10 4 -10 6 0 11 5 11 10 0 6 -2 10 -4 10 -3 0
-8 -4 -11 -10z"/>
<path d="M1900 4225 c-7 -9 -8 -15 -2 -15 5 0 12 7 16 15 3 8 4 15 2 15 -2 0
-9 -7 -16 -15z"/>
<path d="M1751 4212 c-1 -7 6 -15 15 -19 8 -3 13 -11 10 -18 -2 -6 0 -18 5
-26 6 -10 9 -4 9 19 0 21 -5 32 -14 32 -8 0 -17 6 -19 13 -4 9 -6 9 -6 -1z"/>
<path d="M1725 4119 c-4 -6 -5 -12 -2 -15 2 -3 7 2 10 11 7 17 1 20 -8 4z"/>
<path d="M1755 4119 c-4 -6 -5 -12 -2 -15 2 -3 7 2 10 11 7 17 1 20 -8 4z"/>
<path d="M1750 4069 c0 -5 5 -7 10 -4 6 3 10 8 10 11 0 2 -4 4 -10 4 -5 0 -10
-5 -10 -11z"/>
<path d="M1925 4050 c2 -14 5 -33 5 -42 0 -10 5 -18 10 -18 14 0 12 19 -6 55
-12 26 -14 27 -9 5z"/>
<path d="M1595 3850 c-3 -5 -2 -10 4 -10 5 0 13 5 16 10 3 6 2 10 -4 10 -5 0
-13 -4 -16 -10z"/>
<path d="M1495 3260 c-3 -5 -1 -10 4 -10 6 0 11 5 11 10 0 6 -2 10 -4 10 -3 0
-8 -4 -11 -10z"/>
<path d="M1750 3017 c0 -9 10 -22 23 -28 l22 -12 -20 24 c-11 13 -21 26 -22
28 -2 2 -3 -3 -3 -12z"/>
<path d="M1781 2921 c-8 -5 -9 -11 -3 -15 5 -3 12 1 16 9 6 17 6 18 -13 6z"/>
<path d="M2215 3270 c3 -5 8 -10 11 -10 2 0 4 5 4 10 0 6 -5 10 -11 10 -5 0
-7 -4 -4 -10z"/>
<path d="M2326 2835 c4 -8 8 -15 10 -15 2 0 4 7 4 15 0 8 -4 15 -10 15 -5 0
-7 -7 -4 -15z"/>
<path d="M1670 2800 c0 -6 7 -10 15 -10 8 0 15 2 15 4 0 2 -7 6 -15 10 -8 3
-15 1 -15 -4z"/>
<path d="M1730 2722 c0 -4 4 -13 9 -20 7 -11 9 -11 14 1 3 9 -1 18 -9 21 -8 3
-14 2 -14 -2z"/>
<path d="M2040 2561 c0 -16 28 -20 40 -5 8 9 9 14 2 14 -6 0 -13 -6 -15 -12
-4 -10 -6 -10 -6 0 -1 14 -21 17 -21 3z"/>
<path d="M2506 2383 c-4 -5 -12 -8 -18 -8 -6 0 -12 -8 -14 -19 -2 -16 0 -16
22 5 13 12 24 24 24 26 0 5 -6 3 -14 -4z"/>
<path d="M2417 2342 c-15 -16 -15 -19 -2 -19 8 0 13 3 10 5 -3 3 0 11 6 19 17
20 5 16 -14 -5z"/>
<path d="M2336 2258 c3 -5 10 -6 15 -3 13 9 11 12 -6 12 -8 0 -12 -4 -9 -9z"/>
<path d="M2427 2233 c-4 -3 -7 -13 -7 -21 0 -18 13 -7 16 13 2 17 1 18 -9 8z"/>
<path d="M2366 2178 c3 -5 10 -6 15 -3 13 9 11 12 -6 12 -8 0 -12 -4 -9 -9z"/>
<path d="M2291 2133 c4 -17 -14 -43 -25 -36 -6 3 0 -7 14 -23 14 -16 28 -30
33 -32 4 -2 13 -9 20 -15 7 -7 21 -18 32 -26 11 -7 6 0 -11 17 l-32 30 21 20
c15 16 17 20 5 18 -9 -1 -23 -7 -31 -14 -12 -10 -16 -9 -20 10 -4 12 -2 27 4
34 7 8 6 14 -1 19 -6 4 -10 3 -9 -2z"/>
<path d="M2335 2110 c3 -5 8 -10 11 -10 2 0 4 5 4 10 0 6 -5 10 -11 10 -5 0
-7 -4 -4 -10z"/>
<path d="M2379 2043 c-13 -16 -12 -17 4 -4 9 7 17 15 17 17 0 8 -8 3 -21 -13z"/>
<path d="M2740 905 c-10 -12 -10 -15 4 -15 9 0 16 7 16 15 0 8 -2 15 -4 15 -2
0 -9 -7 -16 -15z"/>
<path d="M286 666 c10 -8 21 -12 24 -10 5 6 -21 24 -34 24 -6 0 -1 -6 10 -14z"/>
<path d="M320 650 c0 -5 5 -10 11 -10 5 0 7 5 4 10 -3 6 -8 10 -11 10 -2 0 -4
-4 -4 -10z"/>
<path d="M330 624 c-30 -16 -50 -18 -50 -4 0 6 -7 10 -15 10 -8 0 -15 -4 -15
-10 0 -15 122 -90 147 -90 21 0 22 1 7 36 -8 20 -13 43 -10 50 3 8 1 14 -3 14
-5 0 -15 2 -23 4 -7 2 -24 -2 -38 -10z"/>
<path d="M557 516 c6 -29 29 -41 37 -20 6 16 -15 44 -32 44 -5 0 -7 -11 -5
-24z"/>
<path d="M2311 484 c0 -11 3 -14 6 -6 3 7 2 16 -1 19 -3 4 -6 -2 -5 -13z"/>
<path d="M545 460 c10 -11 20 -38 22 -62 4 -36 1 -47 -21 -70 -27 -30 -23 -34
17 -19 28 11 67 68 67 98 0 26 -28 51 -70 63 -32 9 -32 9 -15 -10z"/>
<path d="M785 400 c-3 -5 -3 -10 1 -10 4 0 -1 -6 -11 -14 -17 -12 -18 -18 -7
-40 11 -26 32 -36 32 -16 0 6 11 22 25 36 26 26 25 50 -1 40 -8 -3 -14 -1 -14
4 0 13 -17 13 -25 0z"/>
<path d="M244 392 c8 -13 85 -36 93 -28 3 2 -10 9 -29 14 -18 5 -42 13 -52 18
-13 5 -17 4 -12 -4z"/>
<path d="M395 342 c8 -8 100 -42 112 -42 2 0 3 4 3 9 0 4 -21 14 -47 21 -27 6
-55 14 -63 17 -10 3 -11 1 -5 -5z"/>
<path d="M1535 290 c-3 -5 -1 -10 4 -10 6 0 11 5 11 10 0 6 -2 10 -4 10 -3 0
-8 -4 -11 -10z"/>
<path d="M2140 220 c19 -13 30 -13 30 0 0 6 -10 10 -22 10 -19 0 -20 -2 -8
-10z"/>
<path d="M1104 172 c-6 -4 -15 -18 -19 -32 -7 -22 -6 -23 9 -11 14 12 16 11
16 -6 0 -11 -9 -28 -20 -38 -11 -10 -20 -22 -20 -27 0 -4 41 -8 91 -8 l90 0
-3 32 c-5 52 -106 115 -144 90z"/>
<path d="M2326 164 c-4 -9 -4 -19 -1 -22 2 -3 7 3 11 12 4 9 4 19 1 22 -2 3
-7 -3 -11 -12z"/>
<path d="M2466 94 c-9 -22 -8 -24 9 -24 8 0 15 6 15 14 0 22 -17 28 -24 10z"/>
<path d="M1503 53 c9 -2 25 -2 35 0 9 3 1 5 -18 5 -19 0 -27 -2 -17 -5z"/>
<path d="M1888 53 c6 -2 18 -2 25 0 6 3 1 5 -13 5 -14 0 -19 -2 -12 -5z"/>
</g>
</svg>
